PathFileType	4	(X/Y/Z)	C:\Users\Basilio\Documents\Thesis Gigler\squatting_fais\c3dfiles\073\SLS_back_pre4\markers_experimental.trc
DataRate	CameraRate	NumFrames	NumMarkers	Units	OrigDataRate	OrigDataStartFrame	OrigNumFrames
200.000000	200.000000	4	61	mm	200.000000	838	1341
Frame#	Time	FHD			LBHD			RBHD			C7			T10			CLAV			LSHO			LUUPA			LMUPA			LDUPA			LLEP			LMEP			LRAD			LUL			LRFIN			RSHO			RUPA1			RMUPA			RDUPA			RLEP			RMEP			RUL			RUFIN			LASI			RASI			USACR			LSACR			RSACR			LTHI1			LTHI2			LTHI3			LTHI4			LLFC			LTIB1			LTIB2			LTIB3			LTIB4			LLMAL			LMMAL			LHEE			LMT1			LMT2			LMT5			RTHI			RTHI2			RTHI3			RTHI4			RLFC			RMFC			RTIB1			RTIB2			RTIB3			RTIB4			RLMAL			RMMAL			RHEE			RMT1			RMT2			RMT5			LMFC			RRAD			
		X1	Y1	Z1	X2	Y2	Z2	X3	Y3	Z3	X4	Y4	Z4	X5	Y5	Z5	X6	Y6	Z6	X7	Y7	Z7	X8	Y8	Z8	X9	Y9	Z9	X10	Y10	Z10	X11	Y11	Z11	X12	Y12	Z12	X13	Y13	Z13	X14	Y14	Z14	X15	Y15	Z15	X16	Y16	Z16	X17	Y17	Z17	X18	Y18	Z18	X19	Y19	Z19	X20	Y20	Z20	X21	Y21	Z21	X22	Y22	Z22	X23	Y23	Z23	X24	Y24	Z24	X25	Y25	Z25	X26	Y26	Z26	X27	Y27	Z27	X28	Y28	Z28	X29	Y29	Z29	X30	Y30	Z30	X31	Y31	Z31	X32	Y32	Z32	X33	Y33	Z33	X34	Y34	Z34	X35	Y35	Z35	X36	Y36	Z36	X37	Y37	Z37	X38	Y38	Z38	X39	Y39	Z39	X40	Y40	Z40	X41	Y41	Z41	X42	Y42	Z42	X43	Y43	Z43	X44	Y44	Z44	X45	Y45	Z45	X46	Y46	Z46	X47	Y47	Z47	X48	Y48	Z48	X49	Y49	Z49	X50	Y50	Z50	X51	Y51	Z51	X52	Y52	Z52	X53	Y53	Z53	X54	Y54	Z54	X55	Y55	Z55	X56	Y56	Z56	X57	Y57	Z57	X58	Y58	Z58	X59	Y59	Z59	X60	Y60	Z60	X61	Y61	Z61	

839	4.19	25.72868156433106	1357.626831054688	-757.1633911132814	-109.2094650268555	1339.013061523438	-786.7622070312502	-138.6277618408203	1323.703735351563	-654.6218261718751	-169.651123046875	1256.659301757813	-720.4818725585939	-401.5904235839845	1028.981079101563	-749.0749511718751	-92.95735168457033	1122.33154296875	-717.5890502929689	-91.89640045166017	1199.751586914063	-847.4664306640627	-26.92549514770509	1120.9287109375	-949.0115356445315	15.1026782989502	1129.0625	-923.2958984375002	28.55908393859864	1082.113525390625	-960.099304199219	125.2268142700196	1036.842651367188	-962.4898681640627	110.3269195556641	980.4904785156252	-920.6626586914065	378.8536071777344	1019.831298828125	-836.913024902344	386.2773742675782	1015.950256347656	-911.3668212890627	461.2888183593751	1014.856567382813	-826.1868896484377	-90.99089813232423	1184.097290039063	-585.8963012695314	-33.51358032226563	1076.537353515625	-475.2702941894532	9.91171169281006	1088.67041015625	-491.3063354492189	21.82918930053711	1035.762329101563	-465.9996948242189	109.1516647338867	1001.223510742188	-462.2068786621095	98.93575286865237	947.3784790039065	-524.9628906250001	373.8148498535157	1012.414184570313	-505.6700744628907	454.9906311035157	1021.036010742188	-584.1762695312501	-361.3088378906251	794.3670654296877	-854.1712036132815	-357.7304687500001	838.4410400390627	-616.3961181640626	-492.8627319335939	948.1143188476565	-745.0029907226564	-515.4845581054689	923.1646118164065	-768.5513916015627	-521.1217651367189	934.1246337890627	-712.8699340820314	-389.9588012695314	500.1732788085939	-893.9803466796877	-345.1990356445313	429.768524169922	-872.4636230468752	-306.4252319335938	439.9566955566407	-844.099792480469	-370.1177978515626	376.5690002441407	-859.8509521484377	-377.6976928710938	331.9800415039063	-858.3120727539065	-540.4523315429689	248.1560821533204	-804.288513183594	-583.1395874023439	289.9578247070313	-863.9149169921877	-587.7990112304689	255.5972900390626	-840.1562500000002	-666.8200683593751	250.6665649414063	-809.6524047851565	-788.616882324219	293.3738403320313	-849.231384277344	-766.9200439453126	298.3195495605469	-762.5589599609376	-819.140563964844	359.6933593750001	-817.9631958007815	-833.6309814453127	147.6699829101563	-740.4368286132814	-833.6876220703127	137.8971252441407	-778.7950439453127	-855.9455566406252	163.0143585205078	-835.9423828125002	-354.7753295898438	664.0964355468751	-544.5501098632814	-291.9052124023438	644.3789672851564	-552.9699707031251	-267.6949462890626	665.2546386718751	-560.8080444335939	-267.0930786132813	567.6383056640626	-578.3509521484376	-184.1026763916016	464.3077087402345	-617.4686279296876	-189.9666290283203	470.7404174804689	-742.9492797851564	-197.8342590332032	316.9328308105469	-724.9751586914064	-243.2612762451172	241.1091918945313	-663.4837646484376	-226.5001068115235	236.3368530273438	-707.6360473632814	-265.2082824707032	207.3362579345704	-740.1708374023439	-352.6119384765626	96.27770996093753	-690.1954345703126	-345.7486572265626	126.7249908447266	-777.010925292969	-430.2615661621095	81.90095520019533	-744.6048583984376	-206.1487731933594	54.65120697021486	-761.9058227539064	-206.3472595214844	51.73965454101564	-720.0412597656251	-248.5378875732422	35.18033981323243	-671.2885742187501	-388.6829223632814	339.1739196777344	-722.1468505859376	362.5397033691407	1004.994934082031	-579.7127685546876	
840	4.195	25.84845352172852	1359.499877929688	-757.1759033203126	-109.6339111328125	1340.633911132813	-786.7707519531252	-138.8941802978516	1325.23583984375	-654.4085693359376	-169.9302062988282	1258.268310546875	-720.4350585937501	-401.6256713867189	1030.4306640625	-748.9626464843751	-92.92131805419923	1124.16064453125	-717.5263671875001	-92.06173706054689	1201.401245117188	-847.533386230469	-27.13164329528809	1122.672729492188	-948.9815673828127	15.12806987762452	1130.872680664063	-923.5518188476565	28.417142868042	1083.890869140625	-960.0393676757815	125.3218383789063	1038.548706054688	-962.5153808593752	110.3043441772461	982.0385742187502	-920.8035888671877	378.7757873535157	1021.679931640625	-837.2546997070315	386.257293701172	1017.974853515625	-911.217224121094	461.1480102539064	1016.943603515625	-826.1837158203127	-91.14378356933595	1185.748291015625	-585.7745971679689	-33.62020111083985	1078.258422851563	-475.2415771484376	9.785837173461916	1090.313720703125	-491.2007751464845	21.77310943603516	1037.45703125	-465.9181213378907	109.0749588012696	1002.912841796875	-462.1369018554689	98.76733398437503	948.9606933593752	-524.8663330078126	373.6975708007813	1014.194458007813	-505.5467224121095	454.900115966797	1022.901733398438	-583.9321289062501	-361.0054321289063	795.738708496094	-854.050231933594	-357.2180175781251	839.9997558593752	-616.3422851562501	-492.6785888671876	949.3444824218752	-744.8602294921876	-515.3921508789064	924.3381958007815	-768.3874511718752	-520.8234863281251	935.2426757812502	-712.7429809570314	-390.1744384765626	501.0129394531251	-894.5134887695315	-345.2358703613282	430.9203491210939	-872.3863525390627	-306.5583801269532	440.955291748047	-844.0015869140627	-370.1504211425782	377.6918334960938	-859.888366699219	-377.7885131835938	333.2040100097657	-858.4239501953127	-540.7067871093751	249.416244506836	-804.3091430664065	-583.2191772460939	291.0704650878907	-863.7503662109377	-587.9339599609376	256.6684265136719	-840.2023925781252	-667.0385131835939	251.9430694580079	-809.4915771484377	-788.9443359375002	294.6750793457032	-849.2277832031252	-767.0761718750001	299.4947814941407	-762.4577026367189	-819.247985839844	360.8779296875001	-817.8433227539065	-833.884460449219	148.9430847167969	-740.4871215820314	-833.9681396484377	139.3456268310547	-778.7993164062502	-856.263122558594	164.3735656738282	-835.915466308594	-354.8346557617188	665.0278320312501	-544.4390869140626	-292.0155639648438	645.0121459960939	-553.0581054687501	-267.6964416503907	665.8298339843751	-560.7189331054689	-267.3773498535157	568.2203369140626	-578.2404174804689	-184.7473754882813	464.6265869140626	-617.3391723632814	-190.4512176513672	470.9925231933595	-742.8143920898439	-198.2168121337891	317.1856079101563	-724.8695678710939	-243.543685913086	241.2648162841797	-663.3424682617189	-226.7141571044922	236.5623016357422	-707.4710693359376	-265.3491516113282	207.4388885498047	-740.0532226562501	-352.6713256835938	96.32341003417972	-690.1781005859376	-345.7811584472657	126.7333450317383	-777.0380859375002	-430.2746887207032	81.88308715820314	-744.5880126953126	-206.2029876708985	54.62330245971681	-761.9182128906251	-206.2843322753907	51.82212448120119	-720.0300903320314	-248.5371093750001	35.17232513427735	-671.3162841796876	-388.8587036132814	340.2753601074219	-722.1571044921876	362.4482421875001	1006.674194335938	-579.6587524414064	
841	4.2	25.29011726379395	1361.42724609375	-757.1137084960939	-109.7732238769532	1342.506591796875	-786.614929199219	-139.1781158447266	1326.74072265625	-654.4843139648439	-170.1178588867188	1259.902954101563	-720.3504028320314	-401.3677062988282	1031.589111328125	-748.8136596679689	-92.89086914062501	1125.880981445313	-717.4349975585939	-92.2145233154297	1203.0693359375	-847.4448852539065	-27.27497863769532	1124.30712890625	-948.9766235351565	14.96203327178955	1132.523803710938	-923.5302734375002	28.25071334838868	1085.510864257813	-960.085632324219	125.116813659668	1040.384399414063	-962.5759887695315	110.135856628418	984.0648193359377	-920.9810180664065	378.7135620117188	1023.574768066406	-837.1556396484377	386.0915832519532	1019.894287109375	-911.2568969726565	460.9959411621095	1019.041748046875	-826.0779418945315	-91.26123809814455	1187.343139648438	-585.7479248046876	-33.74087524414063	1079.775634765625	-475.1726989746095	9.696980476379396	1091.959228515625	-491.2098999023439	21.64472389221192	1039.035278320313	-465.8240966796876	108.9823837280274	1004.532470703125	-462.067352294922	98.67092895507815	950.7301025390627	-524.7875976562501	373.6384277343751	1016.000183105469	-505.3748474121095	454.802459716797	1024.812866210938	-583.8714599609376	-360.7538452148438	796.9884033203127	-853.8887329101565	-357.2504882812501	840.9363403320315	-616.1016845703126	-492.4866333007814	950.4685668945315	-744.6777343750001	-515.1397705078126	925.5318603515627	-768.196228027344	-520.7351074218751	936.4305419921877	-712.6007690429689	-390.2202148437501	502.0803833007814	-894.4575195312502	-345.3201293945313	432.2298889160157	-872.4545898437502	-306.5513305664063	441.9995422363282	-843.9221191406252	-370.3255004882813	378.9345092773438	-859.9007568359377	-377.9474487304688	334.3297424316407	-858.3745727539065	-540.7688598632814	250.4029388427735	-804.8355712890627	-584.4337768554689	292.9313964843751	-864.291198730469	-588.2292480468751	257.9943847656251	-840.555847167969	-667.2192993164064	252.9764709472657	-809.6164550781252	-789.0657958984377	296.0151977539063	-849.0823974609377	-767.3176879882814	300.5951232910157	-762.3909912109376	-819.4223632812502	362.1044616699219	-817.643493652344	-834.1162109375002	150.0382537841797	-740.4461669921876	-834.208679199219	140.4261016845703	-778.9842529296877	-856.3579711914065	165.3969879150391	-835.8967895507815	-354.8333435058594	665.8867187500001	-544.1693115234376	-292.0696411132813	645.7071533203126	-552.9295043945314	-267.6823120117188	666.4115600585939	-560.6325683593751	-267.6570434570313	568.8114624023439	-578.1423339843751	-185.3319702148438	464.9122619628907	-617.1690063476564	-190.9039459228516	471.3107299804689	-742.7063598632814	-198.445541381836	317.5028686523438	-724.6827392578126	-243.7877807617188	241.4641571044922	-663.1657714843751	-226.9857330322266	236.7680664062501	-707.4949340820314	-265.5629577636719	207.5830078125001	-740.0621948242189	-352.6893005371094	96.32404327392581	-690.1647338867189	-345.7911682128907	126.767562866211	-777.0227661132815	-430.2683715820314	81.89839172363283	-744.5872192382814	-206.1937866210938	54.63157653808595	-761.9170532226564	-206.2975769042969	51.86352157592775	-719.8993530273439	-248.5338897705079	35.15387725830079	-671.3139038085939	-389.0010986328126	341.4959106445313	-722.1950683593751	362.3763732910157	1008.653259277344	-579.4408569335939	
842	4.205	25.37242317199708	1363.242431640625	-757.0313110351564	-110.0894927978516	1344.107666015625	-786.5716552734377	-139.4214324951172	1328.537353515625	-654.4657592773439	-170.2640991210938	1261.531372070313	-720.3340454101564	-401.490936279297	1033.13671875	-748.7097778320314	-92.9479217529297	1127.587768554688	-717.4276123046876	-92.28799438476564	1204.656616210938	-847.5247192382815	-27.3196086883545	1126.121337890625	-949.0407714843752	14.8051233291626	1134.298828125	-923.4907836914065	28.15839958190919	1087.465454101563	-960.1171875000002	124.9682388305664	1042.094482421875	-962.6702880859377	110.0694808959961	985.570251464844	-920.840759277344	378.5587463378907	1025.54443359375	-837.1853637695315	386.0128479003907	1021.840393066406	-911.2515869140627	460.8858337402345	1020.993103027344	-826.1375732421877	-91.42481994628908	1189.066650390625	-585.7130126953126	-33.87832260131837	1081.450805664063	-475.0943908691407	9.571586608886721	1093.567626953125	-491.4913635253907	21.55549812316895	1040.738159179688	-465.8104248046876	108.8902435302735	1006.213989257813	-462.0017395019532	98.67664337158206	952.2913208007815	-524.6351318359376	373.5180969238282	1017.822875976563	-505.2112426757814	454.824432373047	1026.744506835938	-583.4848632812501	-360.6135864257813	798.2420654296877	-853.9568481445315	-356.9276733398438	842.3076171875002	-616.1347045898439	-492.4136047363282	951.9132080078127	-744.5888061523439	-514.7901611328126	926.8023071289065	-768.0986328125002	-520.5227050781251	937.7641601562502	-712.5405883789064	-390.0860290527345	503.4050903320314	-894.566833496094	-345.2958984375001	433.324920654297	-872.3568115234377	-306.4315490722657	443.598358154297	-844.229187011719	-370.4702148437501	380.1705017089844	-859.8613891601565	-378.1066284179688	335.5074462890626	-858.4046020507815	-540.9461669921876	251.6943359375001	-804.8093872070315	-584.6932373046876	294.3142089843751	-864.4143676757815	-588.2734375000001	259.2365112304688	-840.4317016601565	-667.4326171875001	254.294906616211	-809.6677246093752	-789.1460571289065	297.1008911132813	-848.9282226562502	-767.4357299804689	301.8080749511719	-762.3683471679689	-819.613220214844	363.3546142578126	-817.4826660156252	-834.4056396484377	151.1484069824219	-740.4425048828126	-834.5938110351565	141.7026977539063	-779.0559082031252	-856.6687622070315	166.6988220214844	-836.031921386719	-354.8640747070313	666.6906127929689	-544.0510864257814	-292.1493530273438	646.4064331054689	-552.7985229492189	-267.7337951660157	667.0502319335939	-560.5635986328126	-267.9341430664063	569.3563232421876	-578.0578613281251	-185.8790130615235	465.2054748535157	-617.0277709960939	-191.4739074707032	471.575653076172	-742.6229858398439	-198.7779998779297	317.7439270019532	-724.5931396484376	-243.9772338867188	241.6051635742188	-663.1101684570314	-227.1753845214844	236.877426147461	-707.4080200195314	-265.7466430664063	207.6582946777344	-739.9039306640626	-352.7604370117188	96.33350372314456	-690.1964721679689	-345.8742370605469	126.7681350708008	-776.952819824219	-430.2630920410157	81.87559509277345	-744.5894775390626	-206.2135620117188	54.6271324157715	-761.9365234375001	-206.232406616211	51.93245697021486	-719.9514770507814	-248.5370178222657	35.17961502075196	-671.2894897460939	-389.1144409179689	342.5447692871094	-722.2623901367189	362.1061401367188	1010.412963867188	-579.9268188476564	
